<svg width="81" height="80" viewBox="0 0 81 80" fill="none" xmlns="http://www.w3.org/2000/svg">
<path fill-rule="evenodd" clip-rule="evenodd" d="M16.75 17.5C15.7554 17.5 14.8016 17.8951 14.0983 18.5983C13.3951 19.3016 13 20.2554 13 21.25V58.75C13 59.7446 13.3951 60.6984 14.0983 61.4016C14.8016 62.1049 15.7554 62.5 16.75 62.5H41.75C42.7446 62.5 43.6984 62.1049 44.4016 61.4016C45.1049 60.6984 45.5 59.7446 45.5 58.75V52.5C45.5 51.1193 46.6193 50 48 50C49.3807 50 50.5 51.1193 50.5 52.5V58.75C50.5 61.0706 49.5781 63.2962 47.9372 64.9372C46.2962 66.5781 44.0706 67.5 41.75 67.5H16.75C14.4294 67.5 12.2038 66.5781 10.5628 64.9372C8.92187 63.2962 8 61.0706 8 58.75V21.25C8 18.9294 8.92187 16.7038 10.5628 15.0628C12.2038 13.4219 14.4294 12.5 16.75 12.5H40.5C42.8475 12.5 45.2547 13.4277 47.0862 14.8628C48.9082 16.2903 50.5 18.508 50.5 21.25V27.5C50.5 28.8807 49.3807 30 48 30C46.6193 30 45.5 28.8807 45.5 27.5V21.25C45.5 20.5404 45.0676 19.6331 44.0024 18.7986C42.9469 17.9715 41.6041 17.5 40.5 17.5H16.75ZM56.2322 25.7322C57.2085 24.7559 58.7915 24.7559 59.7678 25.7322L72.2678 38.2322C73.2441 39.2085 73.2441 40.7915 72.2678 41.7678L59.7678 54.2678C58.7915 55.2441 57.2085 55.2441 56.2322 54.2678C55.2559 53.2915 55.2559 51.7085 56.2322 50.7322L64.4645 42.5H28C26.6193 42.5 25.5 41.3807 25.5 40C25.5 38.6193 26.6193 37.5 28 37.5H64.4645L56.2322 29.2678C55.2559 28.2915 55.2559 26.7085 56.2322 25.7322Z" fill="#5A4FF3"/>
</svg>
