<svg width="217" height="99" viewBox="0 0 217 99" fill="none" xmlns="http://www.w3.org/2000/svg">
<path fill-rule="evenodd" clip-rule="evenodd" d="M46.5 91H137.5C138.015 91 138.517 90.9444 139 90.8389C139.483 90.9444 139.985 91 140.5 91H192.5C196.366 91 199.5 87.866 199.5 84C199.5 80.134 196.366 77 192.5 77H186.5C182.634 77 179.5 73.866 179.5 70C179.5 66.134 182.634 63 186.5 63H205.5C209.366 63 212.5 59.866 212.5 56C212.5 52.134 209.366 49 205.5 49H183.5C187.366 49 190.5 45.866 190.5 42C190.5 38.134 187.366 35 183.5 35H119.5C123.366 35 126.5 31.866 126.5 28C126.5 24.134 123.366 21 119.5 21H62.5C58.634 21 55.5 24.134 55.5 28C55.5 31.866 58.634 35 62.5 35H22.5C18.634 35 15.5 38.134 15.5 42C15.5 45.866 18.634 49 22.5 49H47.5C51.366 49 54.5 52.134 54.5 56C54.5 59.866 51.366 63 47.5 63H7.5C3.63401 63 0.5 66.134 0.5 70C0.5 73.866 3.63401 77 7.5 77H46.5C42.634 77 39.5 80.134 39.5 84C39.5 87.866 42.634 91 46.5 91ZM209.5 91C213.366 91 216.5 87.866 216.5 84C216.5 80.134 213.366 77 209.5 77C205.634 77 202.5 80.134 202.5 84C202.5 87.866 205.634 91 209.5 91Z" fill="#F6F5FF"/>
<path fill-rule="evenodd" clip-rule="evenodd" d="M75.5 97C63.3497 97 53.5 87.3741 53.5 75.5C53.5 63.6259 63.3497 54 75.5 54C76.0167 54 76.5292 54.0174 77.037 54.0517C76.6842 52.0878 76.5 50.0654 76.5 48C76.5 29.2223 91.7223 14 110.5 14C125.491 14 138.216 23.702 142.739 37.1695C143.81 37.0575 144.898 37 146 37C162.845 37 176.5 50.4315 176.5 67C176.5 82.7406 164.175 95.7273 148.5 96.9782V97H92.0078H75.5ZM87.496 97H80.5314H87.496Z" fill="white"/>
<path d="M87.496 97H80.5314M75.5 97C63.3497 97 53.5 87.3741 53.5 75.5C53.5 63.6259 63.3497 54 75.5 54C76.0167 54 76.5292 54.0174 77.037 54.0517C76.6842 52.0878 76.5 50.0654 76.5 48C76.5 29.2223 91.7223 14 110.5 14C125.491 14 138.216 23.702 142.739 37.1695C143.81 37.0575 144.898 37 146 37C162.845 37 176.5 50.4315 176.5 67C176.5 82.7406 164.175 95.7273 148.5 96.9782V97H92.0078H75.5Z" stroke="#5A4FF3" stroke-width="2.5" stroke-linecap="round"/>
<path fill-rule="evenodd" clip-rule="evenodd" d="M100.112 21.3426C100.112 53.5657 129.133 80.118 166.5 83.7029C161.817 89.4611 154.586 93.3675 146.347 93.9813V94H79.2431C71.1013 94 57.5 90.5697 57.5 75.5483C57.5 60.527 68.0742 57.0967 79.2431 57.0967C79.718 57.0967 80.1891 57.1116 80.6559 57.141C80.3316 55.4556 80.2746 53.7184 80.1623 51.9474C79.4038 39.9842 84.6229 24.907 100.13 20C100.118 20.4473 100.112 20.8944 100.112 21.3426ZM110.616 71.7579C107.578 71.7579 105.114 74.1921 105.114 77.1949C105.114 80.1976 107.578 82.6318 110.616 82.6318C113.655 82.6318 116.118 80.1976 116.118 77.1949C116.118 74.1921 113.655 71.7579 110.616 71.7579Z" fill="#EEEDFE"/>
<path d="M111 83C114.038 83 116.5 80.5376 116.5 77.5C116.5 74.4624 114.038 72 111 72C107.962 72 105.5 74.4624 105.5 77.5C105.5 80.5376 107.962 83 111 83Z" stroke="#5A4FF3" stroke-width="2.5"/>
<path d="M95.5 65.9998L102.5 60.5066L95.5 55.2773" stroke="#5A4FF3" stroke-width="2.5" stroke-linecap="round" stroke-linejoin="round"/>
<path d="M126.5 65.9998L119.5 60.5066L126.5 55.2773" stroke="#5A4FF3" stroke-width="2.5" stroke-linecap="round" stroke-linejoin="round"/>
<path d="M120.497 24C127.006 25.7226 132.145 30.8129 133.938 37.2932" stroke="#5A4FF3" stroke-width="2.5" stroke-linecap="round"/>
<path d="M141.5 7C143.157 7 144.5 5.65685 144.5 4C144.5 2.34315 143.157 1 141.5 1C139.843 1 138.5 2.34315 138.5 4C138.5 5.65685 139.843 7 141.5 7Z" stroke="#5A4FF3" stroke-width="2"/>
<path d="M172.5 23C174.157 23 175.5 21.6569 175.5 20C175.5 18.3431 174.157 17 172.5 17C170.843 17 169.5 18.3431 169.5 20C169.5 21.6569 170.843 23 172.5 23Z" fill="#5A4FF3"/>
<path d="M149.258 14.7578L157.616 23.116M157.743 14.7578L149.385 23.116L157.743 14.7578Z" stroke="#5A4FF3" stroke-width="2.5" stroke-linecap="round" stroke-linejoin="round"/>
<path d="M54.9023 32.5957L60.9023 38.5957M60.9023 32.5957L54.9023 38.5957L60.9023 32.5957Z" stroke="#5A4FF3" stroke-width="2.5" stroke-linecap="round" stroke-linejoin="round"/>
<path d="M68.5 26C70.1569 26 71.5 24.6569 71.5 23C71.5 21.3431 70.1569 20 68.5 20C66.8431 20 65.5 21.3431 65.5 23C65.5 24.6569 66.8431 26 68.5 26Z" fill="#5A4FF3"/>
</svg>
